{
    "asset" : {
        "generator" : "Khronos glTF Blender I/O v1.6.16",
        "version" : "2.0"
    },
    "scene" : 0,
    "scenes" : [
        {
            "name" : "Scene",
            "nodes" : [
                0,
                1,
                2,
                3,
                4,
                5,
                6
            ]
        }
    ],
    "nodes" : [
        {
            "name" : "Light",
            "rotation" : [
                0.16907575726509094,
                0.7558803558349609,
                -0.27217137813568115,
                0.570947527885437
            ],
            "translation" : [
                4.076245307922363,
                5.903861999511719,
                -1.0054539442062378
            ]
        },
        {
            "name" : "Camera",
            "rotation" : [
                0.483536034822464,
                0.33687159419059753,
                -0.20870360732078552,
                0.7804827094078064
            ],
            "translation" : [
                7.358891487121582,
                4.958309173583984,
                6.925790786743164
            ]
        },
        {
            "mesh" : 0,
            "name" : "box",
            "scale" : [
                999.9999389648438,
                999.9999389648438,
                999.9999389648438
            ]
        },
        {
            "mesh" : 1,
            "name" : "base",
            "rotation" : [
                0,
                -1,
                0,
                7.549790126404332e-08
            ],
            "scale" : [
                999.9999389648438,
                999.9999389648438,
                999.9999389648438
            ]
        },
        {
            "mesh" : 2,
            "name" : "grid",
            "rotation" : [
                0,
                -1,
                0,
                7.549790126404332e-08
            ],
            "scale" : [
                999.9999389648438,
                999.9999389648438,
                999.9999389648438
            ],
            "translation" : [
                0,
                -0.020173490047454834,
                0
            ]
        },
        {
            "name" : "Material_Preview_Dummy"
        },
        {
            "mesh" : 3,
            "name" : "flat",
            "rotation" : [
                0,
                0,
                1,
                -4.371138828673793e-08
            ],
            "translation" : [
                0,
                0.5917835235595703,
                0
            ]
        }
    ],
    "materials" : [
        {
            "doubleSided" : true,
            "name" : "Material.001",
            "pbrMetallicRoughness" : {
                "baseColorFactor" : [
                    0.800000011920929,
                    0.800000011920929,
                    0.800000011920929,
                    1
                ],
                "metallicFactor" : 0,
                "roughnessFactor" : 0.5
            }
        },
        {
            "doubleSided" : true,
            "name" : "Body001",
            "pbrMetallicRoughness" : {
                "baseColorFactor" : [
                    0.030808361247181892,
                    0.2049017995595932,
                    0.02336295321583748,
                    1
                ],
                "metallicFactor" : 0,
                "roughnessFactor" : 0.5
            }
        },
        {
            "doubleSided" : true,
            "name" : "Body002",
            "pbrMetallicRoughness" : {
                "baseColorFactor" : [
                    0.800000011920929,
                    0.800000011920929,
                    0.800000011920929,
                    1
                ],
                "metallicFactor" : 0,
                "roughnessFactor" : 0.5
            }
        },
        {
            "alphaMode" : "BLEND",
            "doubleSided" : true,
            "name" : "Body004",
            "pbrMetallicRoughness" : {
                "baseColorFactor" : [
                    0.4000000059604645,
                    0.2745097875595093,
                    0,
                    1
                ],
                "metallicFactor" : 0,
                "roughnessFactor" : 0.5
            }
        }
    ],
    "meshes" : [
        {
            "name" : "Body",
            "primitives" : [
                {
                    "attributes" : {
                        "POSITION" : 0,
                        "NORMAL" : 1
                    },
                    "indices" : 2,
                    "material" : 0
                }
            ]
        },
        {
            "name" : "Body001",
            "primitives" : [
                {
                    "attributes" : {
                        "POSITION" : 3,
                        "NORMAL" : 4
                    },
                    "indices" : 5,
                    "material" : 1
                }
            ]
        },
        {
            "name" : "Body002",
            "primitives" : [
                {
                    "attributes" : {
                        "POSITION" : 6,
                        "NORMAL" : 7
                    },
                    "indices" : 8,
                    "material" : 2
                }
            ]
        },
        {
            "name" : "Cylinder",
            "primitives" : [
                {
                    "attributes" : {
                        "POSITION" : 9,
                        "NORMAL" : 10,
                        "TEXCOORD_0" : 11
                    },
                    "indices" : 12,
                    "material" : 3
                }
            ]
        }
    ],
    "accessors" : [
        {
            "bufferView" : 0,
            "componentType" : 5126,
            "count" : 57,
            "max" : [
                0.0022499999031424522,
                0.0016999999061226845,
                0.001500000013038516
            ],
            "min" : [
                -0.0022499999031424522,
                0.00019999999494757503,
                -0.001500000013038516
            ],
            "type" : "VEC3"
        },
        {
            "bufferView" : 1,
            "componentType" : 5126,
            "count" : 57,
            "type" : "VEC3"
        },
        {
            "bufferView" : 2,
            "componentType" : 5123,
            "count" : 84,
            "type" : "SCALAR"
        },
        {
            "bufferView" : 3,
            "componentType" : 5126,
            "count" : 716,
            "max" : [
                0.0022499999031424522,
                0.0005999999702908099,
                0.001500000013038516
            ],
            "min" : [
                -0.0022499999031424522,
                0,
                -0.001500000013038516
            ],
            "type" : "VEC3"
        },
        {
            "bufferView" : 4,
            "componentType" : 5126,
            "count" : 716,
            "type" : "VEC3"
        },
        {
            "bufferView" : 5,
            "componentType" : 5123,
            "count" : 936,
            "type" : "SCALAR"
        },
        {
            "bufferView" : 6,
            "componentType" : 5126,
            "count" : 1923,
            "max" : [
                0.0010000000474974513,
                0.0005949999904260039,
                0.0009927089558914304
            ],
            "min" : [
                -0.0010000000474974513,
                0.0004949999856762588,
                -0.0009927089558914304
            ],
            "type" : "VEC3"
        },
        {
            "bufferView" : 7,
            "componentType" : 5126,
            "count" : 1923,
            "type" : "VEC3"
        },
        {
            "bufferView" : 8,
            "componentType" : 5123,
            "count" : 2244,
            "type" : "SCALAR"
        },
        {
            "bufferView" : 9,
            "componentType" : 5126,
            "count" : 192,
            "max" : [
                1.0027930736541748,
                0.002560347318649292,
                1.0027930736541748
            ],
            "min" : [
                -1.0027930736541748,
                -0.00805172324180603,
                -1.0027930736541748
            ],
            "type" : "VEC3"
        },
        {
            "bufferView" : 10,
            "componentType" : 5126,
            "count" : 192,
            "type" : "VEC3"
        },
        {
            "bufferView" : 11,
            "componentType" : 5126,
            "count" : 192,
            "type" : "VEC2"
        },
        {
            "bufferView" : 12,
            "componentType" : 5123,
            "count" : 372,
            "type" : "SCALAR"
        }
    ],
    "bufferViews" : [
        {
            "buffer" : 0,
            "byteLength" : 684,
            "byteOffset" : 0
        },
        {
            "buffer" : 0,
            "byteLength" : 684,
            "byteOffset" : 684
        },
        {
            "buffer" : 0,
            "byteLength" : 168,
            "byteOffset" : 1368
        },
        {
            "buffer" : 0,
            "byteLength" : 8592,
            "byteOffset" : 1536
        },
        {
            "buffer" : 0,
            "byteLength" : 8592,
            "byteOffset" : 10128
        },
        {
            "buffer" : 0,
            "byteLength" : 1872,
            "byteOffset" : 18720
        },
        {
            "buffer" : 0,
            "byteLength" : 23076,
            "byteOffset" : 20592
        },
        {
            "buffer" : 0,
            "byteLength" : 23076,
            "byteOffset" : 43668
        },
        {
            "buffer" : 0,
            "byteLength" : 4488,
            "byteOffset" : 66744
        },
        {
            "buffer" : 0,
            "byteLength" : 2304,
            "byteOffset" : 71232
        },
        {
            "buffer" : 0,
            "byteLength" : 2304,
            "byteOffset" : 73536
        },
        {
            "buffer" : 0,
            "byteLength" : 1536,
            "byteOffset" : 75840
        },
        {
            "buffer" : 0,
            "byteLength" : 744,
            "byteOffset" : 77376
        }
    ],
    "buffers" : [
        {
            "byteLength" : 78120,
            "uri" : "data:application/octet-stream;base64,"
        }
    ]
}
